<mxfile host="app.diagrams.net" modified="2023-12-18T12:01:13.579Z" agent="Mozilla/5.0 (Windows NT 10.0; Win64; x64) AppleWebKit/537.36 (KHTML, like Gecko) Chrome/120.0.0.0 Safari/537.36" version="22.1.11" etag="r7dEbiOubTzHQ5fduYvQ" type="github">
  <diagram name="페이지-1" id="I9tHwxixIqzVXGr1ii1-">
    <mxGraphModel>
      <root>
        <mxCell id="0" />
        <mxCell id="1" parent="0" />
      </root>
    </mxGraphModel>
  </diagram>
</mxfile>
